# xmcd CD database file
#
# Track frame offsets:
#	200
#	15700
#	38290
#
# Disc length: 754 seconds
#
# Revision: 0
# Processed by: cddbd v1.5.2PL0 Copyright (c) Steve Scherf et al.
# Submitted via: CDex 1.70beta2
#
DISCID=1302f003
DTITLE=Hooker, John Lee - This Is Hip (Single)
DYEAR=1989
DGENRE=Blues
TTITLE0=This is hip
TTITLE1=Father was a jockey
TTITLE2=My Dream
EXTD=YEAR: 1989
EXTT0=
EXTT1=
EXTT2=
PLAYORDER=
